# xmcd
# Copyright (C) 1995-1998 Ti Kan
#
# Track frame offsets:
#       150
#       8862
#       17255
#       26627
#       42327
#       57426
#       68217
#       96315
#       114833
#       129332
#       144652
#       162580
#       173845
#       193638
#       203169
#       221250
#       231461
#       243658
#
# Disc length: 3557 seconds
#
# Revision: 0
# Processed by: cddbd v1.5.2PL0 Copyright (c) Steve Scherf et al.
# Submitted via: CD-Transfer v1.0
#
DISCID=fc0de312
DTITLE=Cash, Johnny - J. Cash
DYEAR=69
DGENRE=
TTITLE0=Big River (Live)
TTITLE1=I Still Miss Someone (Live)
TTITLE2=Wreck Of The Old 97 (Live)
TTITLE3=I Walk The Line (Live)
TTITLE4=Darlin' Companion (Live)
TTITLE5=I Don't Know Where I'm Born (Live)
TTITLE6=Starkville City Jail (Live)
TTITLE7=San Quenteen (Live)
TTITLE8=San Quenteen Ii (Live)
TTITLE9=Wanted Man (Live)
TTITLE10=A Boy Named Sue (Live)
TTITLE11=(There'll Be) Peace In The Valey (Live)
TTITLE12=Folsom Prison Blues (Live)
TTITLE13=Ring Of Fire (Live)
TTITLE14=He Turned The Water Into Wine (Live)
TTITLE15=Daddy Sang Bass (Live)
TTITLE16=Old Account Was Settled Long Ago, The (Live)
TTITLE17=Closing Medley (Live)
EXTD=
EXTT0=
EXTT1=
EXTT2=
EXTT3=
EXTT4=
EXTT5=
EXTT6=
EXTT7=
EXTT8=
EXTT9=
EXTT10=
EXTT11=
EXTT12=
EXTT13=
EXTT14=
EXTT15=
EXTT16=
EXTT17=
PLAYORDER=
